<?xml version="1.0" encoding="UTF-8" standalone="no"?><svg xmlns="http://www.w3.org/2000/svg" xmlns:xlink="http://www.w3.org/1999/xlink" fill="#000000" height="48.8" preserveAspectRatio="xMidYMid meet" version="1" viewBox="15.6 223.9 478.4 48.8" width="478.4" zoomAndPan="magnify"><g fill="#5c7c6a" id="change1_1"><path d="M 25.613281 244.652344 C 28.226562 242.476562 29.785156 237.585938 25.945312 235.855469 C 22.171875 234.15625 18.121094 236.15625 15.984375 239.332031 C 15.640625 239.847656 15.640625 240.6875 15.984375 241.203125 C 18.636719 245.171875 22.8125 246.277344 27.398438 246.539062 C 35.359375 246.996094 43.433594 246.699219 51.410156 246.753906 C 68.382812 246.871094 85.351562 246.988281 102.324219 247.105469 C 135.597656 247.332031 168.875 247.558594 202.152344 247.789062 C 269.035156 248.246094 335.921875 248.707031 402.808594 249.164062 C 421.773438 249.296875 440.742188 249.425781 459.710938 249.554688 C 464.152344 249.585938 494.003906 252.148438 487.121094 239.484375 C 486.820312 238.925781 486.15625 238.550781 485.523438 238.566406 C 482.976562 238.628906 478.660156 239.3125 478.054688 242.300781 C 477.414062 245.429688 480.660156 247.214844 483.183594 247.324219 C 485.566406 247.429688 485.5625 243.730469 483.183594 243.625 C 480.023438 243.484375 486.128906 241.992188 481.992188 244.628906 C 480.488281 245.585938 478.414062 245.875 476.683594 245.972656 C 473.050781 246.171875 469.335938 245.921875 465.699219 245.894531 C 457.714844 245.839844 449.726562 245.785156 441.742188 245.730469 C 426.433594 245.625 411.128906 245.519531 395.820312 245.414062 C 364.871094 245.203125 333.925781 244.992188 302.976562 244.777344 C 241.75 244.359375 180.523438 243.9375 119.292969 243.519531 C 101.988281 243.398438 84.6875 243.28125 67.382812 243.164062 C 58.730469 243.105469 50.078125 243.042969 41.425781 242.984375 C 37.433594 242.957031 33.4375 243 29.449219 242.902344 C 27.777344 242.863281 26.089844 242.855469 24.441406 242.507812 C 23.292969 242.304688 22.199219 241.921875 21.160156 241.367188 C 21.660156 238.152344 22.273438 238.378906 22.996094 242.035156 C 21.164062 243.5625 23.796875 246.167969 25.613281 244.652344" fill="inherit"/><path d="M 44.683594 235.171875 C 43.0625 234.300781 41.507812 233.328125 40.105469 232.128906 C 39.585938 231.683594 39.085938 231.214844 38.597656 230.730469 C 38.34375 230.476562 36.550781 228.03125 36.457031 229.945312 C 36.449219 230.066406 39.035156 232.488281 39.304688 232.867188 C 39.835938 233.605469 40.304688 234.402344 40.714844 235.214844 C 40.925781 235.625 41.117188 236.046875 41.285156 236.476562 C 41.441406 237.324219 41.585938 237.335938 41.714844 236.507812 C 40.261719 239.496094 44.730469 242.125 46.191406 239.125 C 47.699219 236.023438 45.214844 232.183594 43.378906 229.695312 C 41.496094 227.148438 38.636719 223.945312 35.078125 224.945312 C 31.105469 226.0625 31.320312 230.242188 33.539062 232.886719 C 35.875 235.671875 38.875 237.9375 42.066406 239.644531 C 45.007812 241.21875 47.628906 236.746094 44.683594 235.171875" fill="inherit"/><path d="M 51.136719 250.253906 C 49.9375 251.699219 48.65625 253.0625 47.246094 254.304688 C 46.859375 254.644531 42.644531 257.367188 42.644531 257.589844 C 43.660156 258.679688 44.277344 258.722656 44.492188 257.71875 C 44.640625 257.554688 44.789062 257.390625 44.933594 257.226562 C 45.570312 256.605469 46.554688 256.3125 47.375 256.058594 C 49.199219 255.488281 51.046875 255.273438 52.953125 255.25 C 56.796875 255.203125 56.808594 249.226562 52.953125 249.269531 C 49.433594 249.3125 45.523438 249.855469 42.449219 251.691406 C 39.585938 253.398438 37.425781 256.886719 38.519531 260.28125 C 41.375 269.15625 52.578125 257.847656 55.367188 254.480469 C 57.804688 251.539062 53.597656 247.285156 51.136719 250.253906" fill="inherit"/><path d="M 468.261719 243.230469 C 471.449219 241.519531 474.453125 239.257812 476.789062 236.472656 C 479.007812 233.828125 479.21875 229.648438 475.246094 228.53125 C 471.6875 227.53125 468.832031 230.734375 466.949219 233.28125 C 465.109375 235.769531 462.628906 239.605469 464.136719 242.707031 C 465.59375 245.707031 470.066406 243.082031 468.609375 240.09375 C 468.742188 240.921875 468.886719 240.910156 469.039062 240.0625 C 469.210938 239.632812 469.398438 239.210938 469.613281 238.800781 C 470.019531 237.988281 470.492188 237.191406 471.019531 236.453125 C 471.425781 235.886719 471.867188 235.359375 472.34375 234.851562 C 472.449219 234.738281 473.871094 233.558594 473.871094 233.53125 C 473.773438 231.617188 471.984375 234.0625 471.726562 234.316406 C 471.242188 234.800781 470.742188 235.269531 470.21875 235.714844 C 468.816406 236.910156 467.265625 237.886719 465.644531 238.753906 C 462.699219 240.328125 465.316406 244.808594 468.261719 243.230469" fill="inherit"/><path d="M 454.960938 258.066406 C 457.761719 261.441406 468.953125 272.738281 471.808594 263.863281 C 472.898438 260.480469 470.746094 256.972656 467.878906 255.273438 C 464.789062 253.449219 460.898438 252.898438 457.375 252.855469 C 453.523438 252.8125 453.523438 258.789062 457.375 258.835938 C 459.277344 258.859375 461.128906 259.082031 462.949219 259.644531 C 463.714844 259.878906 464.480469 260.136719 465.125 260.625 C 465.410156 260.792969 465.648438 261.019531 465.835938 261.300781 C 466.050781 262.308594 466.667969 262.265625 467.683594 261.171875 C 467.683594 260.886719 463.433594 258.199219 463.078125 257.890625 C 461.667969 256.648438 460.390625 255.285156 459.1875 253.839844 C 456.730469 250.875 452.519531 255.125 454.960938 258.066406" fill="inherit"/></g></svg>