<?xml version="1.0" encoding="UTF-8" standalone="no"?><svg xmlns="http://www.w3.org/2000/svg" xmlns:xlink="http://www.w3.org/1999/xlink" fill="#000000" height="85" preserveAspectRatio="xMidYMid meet" version="1" viewBox="0.0 0.0 258.6 85.0" width="258.6" zoomAndPan="magnify"><defs><clipPath id="a"><path d="M 192 27 L 258.570312 27 L 258.570312 85.011719 L 192 85.011719 Z M 192 27"/></clipPath><clipPath id="b"><path d="M 0 27 L 67 27 L 67 85.011719 L 0 85.011719 Z M 0 27"/></clipPath><clipPath id="c"><path d="M 96 27 L 163 27 L 163 85.011719 L 96 85.011719 Z M 96 27"/></clipPath></defs><g><g id="change1_2"><path d="M 65.617188 55.671875 L 96.890625 55.671875 L 112.527344 28.589844 L 96.890625 1.507812 L 65.617188 1.507812 L 49.980469 28.589844 Z M 97.757812 57.175781 L 64.75 57.175781 L 48.246094 28.589844 L 64.75 0.00390625 L 97.757812 0.00390625 L 114.261719 28.589844 L 97.757812 57.175781" fill="#abc0b1"/></g><g id="change1_3"><path d="M 161.925781 55.671875 L 193.199219 55.671875 L 208.835938 28.589844 L 193.199219 1.507812 L 161.925781 1.507812 L 146.289062 28.589844 Z M 194.066406 57.175781 L 161.058594 57.175781 L 144.554688 28.589844 L 161.058594 0.00390625 L 194.066406 0.00390625 L 210.570312 28.589844 L 194.066406 57.175781" fill="#abc0b1"/></g><g clip-path="url(#a)" id="change1_5"><path d="M 209.921875 83.507812 L 241.195312 83.507812 L 256.832031 56.425781 L 241.195312 29.339844 L 209.921875 29.339844 L 194.285156 56.425781 Z M 242.0625 85.011719 L 209.054688 85.011719 L 192.550781 56.425781 L 209.054688 27.839844 L 242.0625 27.839844 L 258.566406 56.425781 L 242.0625 85.011719" fill="#abc0b1"/></g><g clip-path="url(#b)" id="change1_4"><path d="M 17.371094 83.507812 L 48.644531 83.507812 L 64.28125 56.425781 L 48.644531 29.339844 L 17.371094 29.339844 L 1.734375 56.425781 Z M 49.511719 85.011719 L 16.503906 85.011719 L 0 56.425781 L 16.503906 27.839844 L 49.511719 27.839844 L 66.015625 56.425781 L 49.511719 85.011719" fill="#abc0b1"/></g><g clip-path="url(#c)" id="change1_1"><path d="M 113.554688 83.507812 L 144.828125 83.507812 L 160.464844 56.425781 L 144.828125 29.339844 L 113.554688 29.339844 L 97.917969 56.425781 Z M 145.695312 85.011719 L 112.6875 85.011719 L 96.183594 56.425781 L 112.6875 27.839844 L 145.695312 27.839844 L 162.199219 56.425781 L 145.695312 85.011719" fill="#abc0b1"/></g></g></svg>